<?xml version="1.0" encoding="UTF-8"?>
<svg width="120" height="36" viewBox="0 0 120 36" fill="none" xmlns="http://www.w3.org/2000/svg">
  <path d="M72.2 24.4c-6.6 4.9-16.2 7.5-24.4 7.5-11.6 0-22-4.3-29.9-11.4-.6-.5-.1-1.3.7-.9 8.9 5.2 19.9 8.3 31.3 8.3 7.7 0 16.1-1.6 23.8-4.9 1.2-.5 2.1.8 1 1.4z" fill="#FF9900"/>
  <path d="M75.1 21.1c-.8-1.1-5.6-.5-7.7-.3-.6.1-.7-.5-.2-.8 3.8-2.7 10-1.9 10.7-.9.7.9-.2 7.4-3.9 10.5-.6.5-1.1.2-.9-.4.8-2.1 2.7-6.8 2-8.1z" fill="#FF9900"/>
  <path d="M67.8 11.2v-2.3c0-.3.3-.6.6-.6h10.8c.3 0 .6.2.6.6v2c0 .3-.3.8-.8 1.4l-5.6 8c2.1-.1 4.3.3 6.2 1.3.4.2.5.6.6.9v2.5c0 .3-.4.7-.8.5-3.3-1.7-7.7-1.9-11.4 0-.4.2-.8-.2-.8-.5v-2.4c0-.3 0-.9.3-1.4l6.5-9.3h-5.7c-.3 0-.6-.2-.6-.6z" fill="#000000"/>
  <path d="M24.2 21.8h-3.3c-.3 0-.6-.2-.6-.5V12c0-.3.3-.6.6-.6h3.1c.3 0 .6.2.6.5v1.2h.1c.8-2.2 2.4-3.2 4.5-3.2 2.1 0 3.4 1 4.4 3.2.8-2.2 2.7-3.2 4.7-3.2 1.4 0 3 .6 3.9 1.9.9 1.3.8 3.2.8 4.9v9.8c0 .3-.3.6-.6.6h-3.3c-.3 0-.6-.3-.6-.6v-8.2c0-.7.1-2.3-.1-2.9-.3-1.1-1.1-1.4-2.1-1.4-.9 0-1.8.6-2.2 1.5-.4.9-.3 2.5-.3 3.7v7.3c0 .3-.3.6-.6.6h-3.3c-.3 0-.6-.3-.6-.6v-8.2c0-1.8.3-4.5-2-4.5-2.3 0-2.2 2.6-2.2 4.5v8.2c.2.2-.1.5-.4.5z" fill="#000000"/>
  <path d="M89.1 11.4c4.9 0 7.5 4.2 7.5 9.5 0 5.1-2.9 9.2-7.5 9.2-4.8 0-7.4-4.2-7.4-9.4 0-5.2 2.6-9.3 7.4-9.3zm0 3.4c-2.4 0-2.6 3.3-2.6 5.4 0 2.1 0 6.5 2.6 6.5s2.7-4.4 2.7-6.5c0-1.6-.1-3.1-.5-4.4-.3-1.1-1-1.5-2.2-1.5z" fill="#000000"/>
  <path d="M101.9 21.8h-3.3c-.3 0-.6-.3-.6-.6V12c0-.3.3-.6.6-.6h3.1c.3 0 .5.2.6.5v1.4h.1c.9-2.3 2.2-3.4 4.5-3.4 1.5 0 2.9.5 3.8 2 .9 1.3.9 3.5.9 5.1v9.2c0 .3-.3.6-.6.6h-3.3c-.3 0-.6-.2-.6-.5v-8c0-1.6.2-4-2-4-1 0-1.8.6-2.2 1.6-.5 1.2-.6 2.4-.6 3.8v7.1c-.1.3-.4.6-.7.6z" fill="#000000"/>
  <path d="M47.9 16.3c0 1.3 0 2.3-.6 3.4-.5.9-1.3 1.5-2.1 1.5-1.2 0-1.9-.9-1.9-2.3 0-2.7 2.4-3.2 4.7-3.2v.6zm3.2 7.8c-.2.2-.5.2-.8.1-1.1-.9-1.3-1.3-1.9-2.2-1.8 1.9-3.1 2.4-5.5 2.4-2.8 0-5-1.7-5-5.2 0-2.7 1.5-4.5 3.6-5.4 1.8-.8 4.4-.9 6.4-1.2v-.4c0-.8.1-1.8-.4-2.5-.4-.6-1.2-.9-1.9-.9-1.3 0-2.5.7-2.8 2.1-.1.3-.3.6-.6.6l-3.2-.3c-.3-.1-.6-.3-.5-.7C39 7.4 42.1 6 44.8 6c1.4 0 3.2.4 4.3 1.4 1.4 1.3 1.3 3 1.3 4.9v4.4c0 1.3.5 1.9 1 2.6.2.3.2.6 0 .8-.5.4-1.5 1.2-2 1.7l-.1-.1z" fill="#000000"/>
</svg>
